<?xml version="1.0" encoding="UTF-8" standalone="no"?>
<svg
   xmlns:dc="http://purl.org/dc/elements/1.1/"
   xmlns:cc="http://creativecommons.org/ns#"
   xmlns:rdf="http://www.w3.org/1999/02/22-rdf-syntax-ns#"
   xmlns:svg="http://www.w3.org/2000/svg"
   xmlns="http://www.w3.org/2000/svg"
   xmlns:sodipodi="http://sodipodi.sourceforge.net/DTD/sodipodi-0.dtd"
   xmlns:inkscape="http://www.inkscape.org/namespaces/inkscape"
   sodipodi:docname="p250.svg"
   inkscape:version="1.0 (4035a4fb49, 2020-05-01)"
   id="svg8"
   version="1.1"
   viewBox="0 0 13.229171 8.4666659"
   height="32"
   width="50">
  <defs
     id="defs2" />
  <sodipodi:namedview
     units="px"
     inkscape:window-maximized="1"
     inkscape:window-y="-8"
     inkscape:window-x="1432"
     inkscape:window-height="837"
     inkscape:window-width="1600"
     showgrid="false"
     inkscape:document-rotation="0"
     inkscape:current-layer="layer1"
     inkscape:document-units="px"
     inkscape:cy="7.415984"
     inkscape:cx="34.677609"
     inkscape:zoom="7.9195959"
     inkscape:pageshadow="2"
     inkscape:pageopacity="0.0"
     borderopacity="1.0"
     bordercolor="#666666"
     pagecolor="#ffffff"
     id="base" />
  <metadata
     id="metadata5">
    <rdf:RDF>
      <cc:Work
         rdf:about="">
        <dc:format>image/svg+xml</dc:format>
        <dc:type
           rdf:resource="http://purl.org/dc/dcmitype/StillImage" />
        <dc:title></dc:title>
      </cc:Work>
    </rdf:RDF>
  </metadata>
  <g
     id="layer1"
     inkscape:groupmode="layer"
     inkscape:label="Layer 1">
    <path
       d=""
       id="path24"
       style="fill:#000000;stroke-width:0.352778" />
    <path
       id="path56"
       d="m 2.7991751,8.3850815 c 0,-0.019252 -0.150021,-0.028341 -0.340047,-0.025666 -0.220031,0.00305 -0.390055,-0.011988 -0.650092,-0.057235 C 1.378976,8.2259835 0.45884674,8.1087056 0.43884394,8.126115 c 0,0.00709 0,0.046434 0,0.087424 0,0.077057 -0.1000141,0.1406034 -0.1500211,0.1191129 0,-0.00674 0,-0.071347 0,-0.1435602 0,-0.1328146 -0.100014,-0.2122857 -0.1400196,-0.237348 0,-0.00755 -0.1000141,-0.051319 -0.1000141,-0.09726 0,-0.069748 0,-0.1225126 0,-0.319799 0,-0.129948 0,-0.3210615 0.1000141,-0.4246965 0.100014,-0.2513369 0.7000983,-1.6229361 0.8501194,-1.8713245 0.14001956,-0.2157824 0.17002376,-0.3032282 0.13001816,-0.34642 0,-0.042397 0,-0.084892 0,-0.1883826 0.1000141,-0.1145643 0.2500352,-0.5026619 0.320045,-0.7299718 0.1400197,-0.4345855 0,-0.8254927 -0.3600506,-0.9855788 C 0.92891274,2.9187325 0.63887204,2.8660855 0.39883834,2.8649698 L 0.20881164,2.8640932 0.10879754,2.7278023 c -0.150021,-0.1961579 -0.1400196,-0.2633161 0,-0.4354155 0.1300183,-0.1164912 0.1500211,-0.1516924 0.1800253,-0.2698274 0,-0.1319495 0,-0.2133756 0,-0.411678 0,-0.057856 0,-0.059255 0.1000141,-0.04221 0.100014,0.0097 0.2200309,0.069381 0.3600505,0.1326328 0.88012366,0.3843217 0.87012226,0.3845826 0.90012646,-0.058852 0,-0.2865064 0.1100152,-0.8865368 0.1800252,-1.1045156 0,-0.070311 0.100014,-0.1664092 0.100014,-0.213551 l 0.100014,-0.085712 0.250035,-0.014658 c 0.310044,-0.018925 0.410058,-0.050063 0.450064,-0.1482656 0,-0.061528 0,-0.07575 0.100014,-0.07575 0.100014,0 0.100014,0.01653 0.120016,0.074626 0,0.1066928 0.120017,0.1329045 0.330047,0.1288947 0.100014,-0.00194 0.220031,0.010231 0.290041,0.027057 0.100014,0.021964 0.490068,0.03113 1.420199,0.032496 0.930131,0.00139 1.370192,0.011593 1.600225,0.037689 0.250035,0.028538 0.370052,0.030112 0.600084,0.00777 0.200028,-0.020573 0.890125,-0.020677 2.590364,-3.922e-4 l 2.3103239,0.02762 0.130019,-0.05824 c 0.200028,-0.082503 0.280039,-0.074385 0.540076,0.052092 l 0.230032,0.1100474 0.100014,0.2093259 c 0.100014,0.193148 0.100014,0.2319817 0,0.5024726 0,0.4213782 -0.170024,1.0717053 -0.280039,1.2290025 v 0.056528 h -1.100155 -1.110156 v 0.075371 l -0.100014,0.075371 H 9.2700841 c -1.360191,0 -1.370192,0.00105 -1.540216,0.1577149 0,0.044113 -0.120017,0.1410447 -0.160023,0.2154021 -0.100014,0.128978 -0.100014,0.1493068 -0.120016,0.4420283 0,0.2597686 0,0.3345811 -0.110016,0.487739 0,0.1066768 -0.130018,0.2160985 -0.180025,0.2666731 -0.160023,0.1390857 -0.290041,0.1660525 -0.940132,0.1916097 -1.100155,0.04259 -1.180166,0.052029 -1.340188,0.136447 -0.100014,0.041025 -0.180026,0.1198136 -0.240034,0.1750856 l -0.110016,0.1004946 -0.380053,1.2310583 c -0.21003,0.677082 -0.440062,1.3780316 -0.50007,1.5576656 -0.100014,0.179634 -0.120017,0.3731076 -0.130019,0.4299413 0,0.098196 0,0.1059228 0.100015,0.155399 0.100014,0.048572 0.100014,0.058494 0.100014,0.1479024 0,0.052711 0,0.1041435 -0.100014,0.1142954 0,0.030602 -0.510072,0.020597 -0.570081,-0.012108 z m 3.63051,-4.2542619 c 0.360051,-0.1147276 0.370052,-0.1172407 0.470066,-0.4301086 0.130019,-0.378309 0,-0.6745077 -0.220031,-0.853544 L 6.5397011,2.758036 6.1096401,2.769375 c -0.230032,0.00627 -0.450063,0.024209 -0.490068,0.040126 0,0.021366 -0.100015,0.080715 -0.170024,0.230224 -0.170024,0.3461562 -0.160023,0.5541953 0,0.8723834 0.160022,0.2745564 0.130018,0.2584139 0.490068,0.2584139 0.230033,0 0.370052,-0.012298 0.460065,-0.039703 z M 5.1795101,3.7436452 c 0,-0.064588 0,-0.1007194 -0.100014,-0.1007194 -0.100014,0 -0.100014,0.055139 -0.100014,0.1130564 0,0.054765 0.100014,0.046215 0.110015,-0.012337 z m 0,-0.3014836 c 0,-0.064588 0,-0.1007194 -0.100014,-0.1007194 -0.100014,0 -0.100014,0.055139 -0.100014,0.1130563 0,0.054765 0.100014,0.046215 0.110015,-0.012337 z m 0,-0.3266073 c 0,-0.064588 0,-0.1007194 -0.100014,-0.1007194 0,0 -0.100014,0.055139 -0.100014,0.1130563 0,0.054765 0.100014,0.046215 0.120016,-0.012337 z M 0.84890154,2.2653554 c 0.100014,-0.039128 0.1300183,-0.080014 0.16002246,-0.090858 0,-0.018158 0,-0.021683 0,-0.044579 -0.10001406,-0.020045 -0.10001406,-0.012714 -0.20002806,0.037843 -0.1000141,0.034488 -0.1900267,0.076622 -0.2500351,0.093631 -0.1700239,0.052224 -0.1600225,0.075104 0,0.075104 0.1600224,0 0.1900266,-0.00919 0.2800393,-0.071141 z"
       style="fill:#ffffff;stroke-width:0.0249782" />
  </g>
</svg>
